<svg width="112" height="106" viewBox="0 0 112 106" fill="none" xmlns="http://www.w3.org/2000/svg">
<path d="M48.7908 14.8916V35.8515C48.2665 35.7932 47.7336 35.7633 47.1939 35.7633C44.2393 35.7633 41.493 36.6596 39.2092 38.1966C36.9255 36.6596 34.1792 35.7633 31.2246 35.7633C30.6848 35.7633 30.152 35.7932 29.6277 35.8515V24.9261C29.6277 16.9458 23.193 10.4765 15.2554 10.4765C7.31777 10.4765 0.883063 16.9458 0.883063 24.9261L0.883057 78.7108C0.883057 93.3414 12.68 105.202 27.2323 105.202H68.7523C79.7768 105.202 88.7139 96.2166 88.7139 85.1329H94.7024C103.742 85.1329 111.071 77.765 111.071 68.6764C111.071 59.5877 103.742 52.2198 94.7024 52.2198H85.9193C82.9796 52.2198 80.1575 52.7278 77.5354 53.66V14.8916C77.5354 6.91134 71.1007 0.442017 63.1631 0.442017C55.2255 0.442017 48.7908 6.91133 48.7908 14.8916Z" fill="white"/>
</svg>
