<svg width="66" height="66" viewBox="0 0 66 66" fill="none" xmlns="http://www.w3.org/2000/svg">
<path d="M54.0931 44.787L57.058 33.5699C55.0372 33.0204 45.6888 31.6264 39.154 31.5548C44.782 28.2794 52.1746 22.4676 53.6415 21.0041L45.3696 12.7511C43.9027 14.2147 38.0685 21.5994 34.7946 27.2054C34.7259 20.6825 33.3195 11.3464 32.7749 9.34247L21.5289 12.2975C22.0797 14.3136 25.597 23.0892 28.8579 28.7668C23.1581 25.5225 14.3715 22.0042 12.3507 21.4547L9.38586 32.6718C11.4066 33.2213 20.755 34.6153 27.2898 34.6869C21.6618 37.9623 14.2693 43.774 12.8023 45.2376L21.0743 53.4906C22.5412 52.027 28.3754 44.6423 31.6492 39.0363C31.718 45.5591 33.1243 54.8953 33.669 56.8992L44.9118 53.9412C44.361 51.925 40.8438 43.1494 37.5829 37.4718C43.2826 40.7162 52.0693 44.2344 54.0901 44.784L54.0931 44.787Z" fill="#041C0C"/>
</svg>
