<svg width="100" height="94" viewBox="0 0 100 94" fill="none" xmlns="http://www.w3.org/2000/svg">
<path d="M57.1629 0.864136C61.5726 0.864136 65.1475 4.4582 65.1475 8.89171V59.8724C68.5825 55.4702 73.9222 52.642 79.919 52.642H88.7021C94.2143 52.642 98.6829 57.1345 98.6829 62.6764C98.6829 68.2183 94.2143 72.7109 88.7021 72.7109H82.7136C79.1858 72.7109 76.326 75.5861 76.326 79.1329C76.326 86.6699 70.2487 92.7798 62.7521 92.7798H21.2321C10.2076 92.7798 1.27051 83.7946 1.27051 72.7109L1.27051 18.9262C1.27051 14.4927 4.84535 10.8986 9.25514 10.8986C13.6649 10.8986 17.2398 14.4927 17.2398 18.9262V54.6489H49.1782V8.89171C49.1782 4.4582 52.7531 0.864136 57.1629 0.864136Z" fill="white"/>
<path fill-rule="evenodd" clip-rule="evenodd" d="M48.7796 8.89208C48.7796 4.2369 52.5331 0.463135 57.1634 0.463135C61.7937 0.463135 65.5473 4.2369 65.5473 8.89208V58.7634C69.0581 54.7642 74.1958 52.241 79.9196 52.241H88.7027C94.4354 52.241 99.0827 56.9132 99.0827 62.6768C99.0827 68.4403 94.4354 73.1126 88.7027 73.1126H82.7142C79.4069 73.1126 76.7257 75.8082 76.7257 79.1333C76.7257 86.8919 70.4698 93.1815 62.7526 93.1815H21.2326C9.98766 93.1815 0.871826 84.0167 0.871826 72.7113L0.871832 18.9265C0.871832 14.2714 4.62541 10.4976 9.25568 10.4976C13.886 10.4976 17.6395 14.2714 17.6395 18.9265V54.2478H48.7796V8.89208ZM57.1634 1.26589C52.9741 1.26589 49.578 4.68025 49.578 8.89208V54.6492C49.578 54.8709 49.3993 55.0506 49.1788 55.0506H17.2403C17.0198 55.0506 16.8411 54.8709 16.8411 54.6492V18.9265C16.8411 14.7147 13.445 11.3004 9.25568 11.3004C5.06639 11.3004 1.67029 14.7147 1.67029 18.9265L1.67029 72.7113C1.67029 83.5733 10.4286 92.3788 21.2326 92.3788H62.7526C70.0288 92.3788 75.9273 86.4486 75.9273 79.1333C75.9273 75.3648 78.9659 72.3099 82.7142 72.3099H88.7027C93.9944 72.3099 98.2842 67.997 98.2842 62.6768C98.2842 57.3566 93.9944 53.0437 88.7027 53.0437H79.9196C74.0506 53.0437 68.8247 55.8111 65.4621 60.1205C65.3571 60.2551 65.1786 60.308 65.0177 60.2521C64.8568 60.1962 64.7488 60.0439 64.7488 59.8727V8.89208C64.7488 4.68025 61.3527 1.26589 57.1634 1.26589Z" fill="#555555"/>
<path d="M49.1777 44.2134C49.1777 39.7799 45.6029 36.1858 41.1931 36.1858C36.7833 36.1858 33.2085 39.7799 33.2085 44.2134V60.2685C33.2085 64.702 36.7833 68.2961 41.1931 68.2961C45.6029 68.2961 49.1777 64.702 49.1777 60.2685V44.2134Z" fill="white"/>
<path fill-rule="evenodd" clip-rule="evenodd" d="M49.5771 44.2129C49.5771 39.5577 45.8236 35.7839 41.1933 35.7839C36.563 35.7839 32.8094 39.5577 32.8094 44.2129V60.268C32.8094 64.9232 36.563 68.697 41.1933 68.697C45.8236 68.697 49.5771 64.9232 49.5771 60.268V44.2129ZM41.1933 36.5867C45.3826 36.5867 48.7787 40.0011 48.7787 44.2129V60.268C48.7787 64.4798 45.3826 67.8942 41.1933 67.8942C37.004 67.8942 33.6079 64.4798 33.6079 60.268V44.2129C33.6079 40.0011 37.004 36.5867 41.1933 36.5867Z" fill="#555555"/>
<path d="M33.2097 44.2134C33.2097 39.7799 29.6349 36.1858 25.2251 36.1858C20.8153 36.1858 17.2405 39.7799 17.2405 44.2134V60.2685C17.2405 64.702 20.8153 68.2961 25.2251 68.2961C29.6349 68.2961 33.2097 64.702 33.2097 60.2685V44.2134Z" fill="white"/>
<path fill-rule="evenodd" clip-rule="evenodd" d="M33.6082 44.2129C33.6082 39.5577 29.8546 35.7839 25.2243 35.7839C20.594 35.7839 16.8405 39.5577 16.8405 44.2129V60.268C16.8405 64.9232 20.594 68.697 25.2243 68.697C29.8546 68.697 33.6082 64.9232 33.6082 60.268V44.2129ZM25.2243 36.5867C29.4136 36.5867 32.8097 40.0011 32.8097 44.2129V60.268C32.8097 64.4798 29.4136 67.8942 25.2243 67.8942C21.035 67.8942 17.6389 64.4798 17.6389 60.268V44.2129C17.6389 40.0011 21.035 36.5867 25.2243 36.5867Z" fill="#555555"/>
</svg>
