<svg width="222" height="115" viewBox="0 0 222 115" fill="none" xmlns="http://www.w3.org/2000/svg">
<path fill-rule="evenodd" clip-rule="evenodd" d="M156.756 0.043396L172.958 0.043396V16.3998L156.756 16.3998V0.043396ZM140.553 49.2531L24.8789 49.2531C20.3367 49.2531 16.6545 52.9353 16.6545 57.4775C16.6545 62.0198 20.3367 65.702 24.8789 65.702L140.553 65.702V65.6561H156.71V65.702H156.756V82.0592H156.71V114.865H140.553V82.0592L16.6545 82.0592H0.499343C0.473346 82.0592 0.452271 82.0381 0.452271 82.0121L0.452271 65.7255C0.452271 65.7125 0.462808 65.702 0.475807 65.702C0.488805 65.702 0.499343 65.6915 0.499343 65.6785L0.499343 49.2766C0.499343 49.2636 0.488805 49.2531 0.475807 49.2531C0.462808 49.2531 0.452271 49.2426 0.452271 49.2296L0.452271 32.9195C0.452271 32.9065 0.462808 32.8959 0.475807 32.8959H0.484059C0.4925 32.8959 0.499343 32.8891 0.499343 32.8806C0.499343 32.8638 0.513029 32.8501 0.529912 32.8501H16.6315C16.6442 32.8501 16.6545 32.8603 16.6545 32.873C16.6545 32.8857 16.6647 32.8959 16.6774 32.8959L140.553 32.8959V0.0439967L156.71 0.0439967V32.8959H156.756V49.2531H156.71H140.553ZM189.16 65.7022H205.363V82.0586H189.16V65.7022ZM189.16 82.1052H172.958V98.4616H189.16V82.1052ZM156.756 98.5083H172.958V114.865H156.756V98.5083ZM189.16 16.4931H172.958V32.8495H189.16V16.4931ZM221.565 49.2992H205.363V65.6555H221.565V49.2992ZM189.16 32.8961L205.363 32.8961V49.2525L189.16 49.2525V32.8961Z" fill="#041C0C"/>
</svg>
